<?xml version="1.0" encoding="UTF-8" standalone="no"?>
<!DOCTYPE svg PUBLIC "-//W3C//DTD SVG 1.1//EN"
 "http://www.w3.org/Graphics/SVG/1.1/DTD/svg11.dtd">
<!-- Generated by graphviz version 2.43.0 (0)
 -->
<!-- Title: snakemake_dag Pages: 1 -->
<svg width="636pt" height="564pt"
 viewBox="0.00 0.00 636.00 564.00" xmlns="http://www.w3.org/2000/svg" xmlns:xlink="http://www.w3.org/1999/xlink">
<g id="graph0" class="graph" transform="scale(1 1) rotate(0) translate(4 560)">
<title>snakemake_dag</title>
<polygon fill="white" stroke="transparent" points="-4,4 -4,-560 632,-560 632,4 -4,4"/>
<!-- 0 -->
<g id="node1" class="node">
<title>0</title>
<path fill="none" stroke="#b6d856" stroke-width="2" d="M323,-108C323,-108 282,-108 282,-108 276,-108 270,-102 270,-96 270,-96 270,-84 270,-84 270,-78 276,-72 282,-72 282,-72 323,-72 323,-72 329,-72 335,-78 335,-84 335,-84 335,-96 335,-96 335,-102 329,-108 323,-108"/>
<text text-anchor="middle" x="302.5" y="-87.5" font-family="sans" font-size="10.00">results dir</text>
</g>
<!-- 11 -->
<g id="node12" class="node">
<title>11</title>
<path fill="none" stroke="#d85656" stroke-width="2" d="M53,-36C53,-36 12,-36 12,-36 6,-36 0,-30 0,-24 0,-24 0,-12 0,-12 0,-6 6,0 12,0 12,0 53,0 53,0 59,0 65,-6 65,-12 65,-12 65,-24 65,-24 65,-30 59,-36 53,-36"/>
<text text-anchor="middle" x="32.5" y="-21" font-family="sans" font-size="10.00">child hom</text>
<text text-anchor="middle" x="32.5" y="-10" font-family="sans" font-size="10.00">VCF</text>
</g>
<!-- 0&#45;&gt;11 -->
<g id="edge16" class="edge">
<title>0&#45;&gt;11</title>
<path fill="none" stroke="grey" stroke-width="2" d="M269.81,-83.2C226.88,-75.21 149.14,-59.42 75.35,-36.36"/>
<polygon fill="grey" stroke="grey" stroke-width="2" points="76.03,-32.9 65.44,-33.21 73.91,-39.57 76.03,-32.9"/>
</g>
<!-- 12 -->
<g id="node13" class="node">
<title>12</title>
<path fill="none" stroke="#d85656" stroke-width="2" d="M130,-36C130,-36 95,-36 95,-36 89,-36 83,-30 83,-24 83,-24 83,-12 83,-12 83,-6 89,0 95,0 95,0 130,0 130,0 136,0 142,-6 142,-12 142,-12 142,-24 142,-24 142,-30 136,-36 130,-36"/>
<text text-anchor="middle" x="112.5" y="-21" font-family="sans" font-size="10.00">child het</text>
<text text-anchor="middle" x="112.5" y="-10" font-family="sans" font-size="10.00">VCF</text>
</g>
<!-- 0&#45;&gt;12 -->
<g id="edge17" class="edge">
<title>0&#45;&gt;12</title>
<path fill="none" stroke="grey" stroke-width="2" d="M269.89,-78.52C240.9,-69.01 197.23,-54.21 151.7,-36.34"/>
<polygon fill="grey" stroke="grey" stroke-width="2" points="152.85,-33.03 142.27,-32.61 150.28,-39.54 152.85,-33.03"/>
</g>
<!-- 13 -->
<g id="node14" class="node">
<title>13</title>
<path fill="none" stroke="#d85656" stroke-width="2" d="M283,-36C283,-36 172,-36 172,-36 166,-36 160,-30 160,-24 160,-24 160,-12 160,-12 160,-6 166,0 172,0 172,0 283,0 283,0 289,0 295,-6 295,-12 295,-12 295,-24 295,-24 295,-30 289,-36 283,-36"/>
<text text-anchor="middle" x="227.5" y="-21" font-family="sans" font-size="10.00">child het phased mother</text>
<text text-anchor="middle" x="227.5" y="-10" font-family="sans" font-size="10.00">VCF</text>
</g>
<!-- 0&#45;&gt;13 -->
<g id="edge18" class="edge">
<title>0&#45;&gt;13</title>
<path fill="none" stroke="grey" stroke-width="2" d="M283.96,-71.7C274.7,-63.05 263.34,-52.45 253.24,-43.03"/>
<polygon fill="grey" stroke="grey" stroke-width="2" points="255.52,-40.37 245.83,-36.1 250.75,-45.49 255.52,-40.37"/>
</g>
<!-- 14 -->
<g id="node15" class="node">
<title>14</title>
<path fill="none" stroke="#d85656" stroke-width="2" d="M430,-36C430,-36 325,-36 325,-36 319,-36 313,-30 313,-24 313,-24 313,-12 313,-12 313,-6 319,0 325,0 325,0 430,0 430,0 436,0 442,-6 442,-12 442,-12 442,-24 442,-24 442,-30 436,-36 430,-36"/>
<text text-anchor="middle" x="377.5" y="-21" font-family="sans" font-size="10.00">child het phased father</text>
<text text-anchor="middle" x="377.5" y="-10" font-family="sans" font-size="10.00">VCF</text>
</g>
<!-- 0&#45;&gt;14 -->
<g id="edge19" class="edge">
<title>0&#45;&gt;14</title>
<path fill="none" stroke="grey" stroke-width="2" d="M321.04,-71.7C330.3,-63.05 341.66,-52.45 351.76,-43.03"/>
<polygon fill="grey" stroke="grey" stroke-width="2" points="354.25,-45.49 359.17,-36.1 349.48,-40.37 354.25,-45.49"/>
</g>
<!-- 15 -->
<g id="node16" class="node">
<title>15</title>
<path fill="none" stroke="#d85656" stroke-width="2" d="M502.5,-36C502.5,-36 472.5,-36 472.5,-36 466.5,-36 460.5,-30 460.5,-24 460.5,-24 460.5,-12 460.5,-12 460.5,-6 466.5,0 472.5,0 472.5,0 502.5,0 502.5,0 508.5,0 514.5,-6 514.5,-12 514.5,-12 514.5,-24 514.5,-24 514.5,-30 508.5,-36 502.5,-36"/>
<text text-anchor="middle" x="487.5" y="-15.5" font-family="sans" font-size="10.00">logs</text>
</g>
<!-- 0&#45;&gt;15 -->
<g id="edge20" class="edge">
<title>0&#45;&gt;15</title>
<path fill="none" stroke="grey" stroke-width="2" d="M335.11,-78.44C363.58,-69 406.11,-54.33 450.84,-36.1"/>
<polygon fill="grey" stroke="grey" stroke-width="2" points="452.2,-39.32 460.11,-32.28 449.53,-32.85 452.2,-39.32"/>
</g>
<!-- 16 -->
<g id="node17" class="node">
<title>16</title>
<path fill="none" stroke="#d85656" stroke-width="2" d="M616,-36C616,-36 545,-36 545,-36 539,-36 533,-30 533,-24 533,-24 533,-12 533,-12 533,-6 539,0 545,0 545,0 616,0 616,0 622,0 628,-6 628,-12 628,-12 628,-24 628,-24 628,-30 622,-36 616,-36"/>
<text text-anchor="middle" x="580.5" y="-15.5" font-family="sans" font-size="10.00">run_config.yaml</text>
</g>
<!-- 0&#45;&gt;16 -->
<g id="edge21" class="edge">
<title>0&#45;&gt;16</title>
<path fill="none" stroke="grey" stroke-width="2" d="M335.22,-81.74C376.62,-72.42 450.33,-55.42 523.17,-36.01"/>
<polygon fill="grey" stroke="grey" stroke-width="2" points="524.22,-39.36 532.97,-33.39 522.4,-32.59 524.22,-39.36"/>
</g>
<!-- 1 -->
<g id="node2" class="node">
<title>1</title>
<path fill="none" stroke="#567bd8" stroke-width="2" d="M324,-180C324,-180 281,-180 281,-180 275,-180 269,-174 269,-168 269,-168 269,-156 269,-156 269,-150 275,-144 281,-144 281,-144 324,-144 324,-144 330,-144 336,-150 336,-156 336,-156 336,-168 336,-168 336,-174 330,-180 324,-180"/>
<text text-anchor="middle" x="302.5" y="-159.5" font-family="sans" font-size="10.00">filter_snps</text>
</g>
<!-- 1&#45;&gt;0 -->
<g id="edge1" class="edge">
<title>1&#45;&gt;0</title>
<path fill="none" stroke="grey" stroke-width="2" d="M302.5,-143.7C302.5,-135.98 302.5,-126.71 302.5,-118.11"/>
<polygon fill="grey" stroke="grey" stroke-width="2" points="306,-118.1 302.5,-108.1 299,-118.1 306,-118.1"/>
</g>
<!-- 2 -->
<g id="node3" class="node">
<title>2</title>
<path fill="none" stroke="#567bd8" stroke-width="2" d="M320.5,-468C320.5,-468 284.5,-468 284.5,-468 278.5,-468 272.5,-462 272.5,-456 272.5,-456 272.5,-444 272.5,-444 272.5,-438 278.5,-432 284.5,-432 284.5,-432 320.5,-432 320.5,-432 326.5,-432 332.5,-438 332.5,-444 332.5,-444 332.5,-456 332.5,-456 332.5,-462 326.5,-468 320.5,-468"/>
<text text-anchor="middle" x="302.5" y="-447.5" font-family="sans" font-size="10.00">filter_het</text>
</g>
<!-- 2&#45;&gt;1 -->
<g id="edge2" class="edge">
<title>2&#45;&gt;1</title>
<path fill="none" stroke="grey" stroke-width="2" d="M332.63,-444.34C367.11,-437.9 424.12,-423.78 465.5,-396 500.32,-372.63 512.06,-363.38 526.5,-324 532.01,-308.98 527.49,-303.97 526.5,-288 524.5,-255.81 538.93,-240.1 517.5,-216 495.08,-190.78 402.28,-175.22 346.19,-167.94"/>
<polygon fill="grey" stroke="grey" stroke-width="2" points="346.53,-164.45 336.17,-166.67 345.65,-171.4 346.53,-164.45"/>
</g>
<!-- 6 -->
<g id="node7" class="node">
<title>6</title>
<path fill="none" stroke="#567bd8" stroke-width="2" d="M283,-396C283,-396 158,-396 158,-396 152,-396 146,-390 146,-384 146,-384 146,-372 146,-372 146,-366 152,-360 158,-360 158,-360 283,-360 283,-360 289,-360 295,-366 295,-372 295,-372 295,-384 295,-384 295,-390 289,-396 283,-396"/>
<text text-anchor="middle" x="220.5" y="-375.5" font-family="sans" font-size="10.00">intersect_child_het_mother</text>
</g>
<!-- 2&#45;&gt;6 -->
<g id="edge9" class="edge">
<title>2&#45;&gt;6</title>
<path fill="none" stroke="grey" stroke-width="2" d="M282.23,-431.7C272,-422.97 259.44,-412.24 248.32,-402.75"/>
<polygon fill="grey" stroke="grey" stroke-width="2" points="250.41,-399.94 240.54,-396.1 245.87,-405.26 250.41,-399.94"/>
</g>
<!-- 7 -->
<g id="node8" class="node">
<title>7</title>
<path fill="none" stroke="#567bd8" stroke-width="2" d="M444,-396C444,-396 325,-396 325,-396 319,-396 313,-390 313,-384 313,-384 313,-372 313,-372 313,-366 319,-360 325,-360 325,-360 444,-360 444,-360 450,-360 456,-366 456,-372 456,-372 456,-384 456,-384 456,-390 450,-396 444,-396"/>
<text text-anchor="middle" x="384.5" y="-375.5" font-family="sans" font-size="10.00">intersect_child_het_father</text>
</g>
<!-- 2&#45;&gt;7 -->
<g id="edge10" class="edge">
<title>2&#45;&gt;7</title>
<path fill="none" stroke="grey" stroke-width="2" d="M322.77,-431.7C333,-422.97 345.56,-412.24 356.68,-402.75"/>
<polygon fill="grey" stroke="grey" stroke-width="2" points="359.13,-405.26 364.46,-396.1 354.59,-399.94 359.13,-405.26"/>
</g>
<!-- 3 -->
<g id="node4" class="node">
<title>3</title>
<path fill="none" stroke="#567bd8" stroke-width="2" d="M217.5,-468C217.5,-468 175.5,-468 175.5,-468 169.5,-468 163.5,-462 163.5,-456 163.5,-456 163.5,-444 163.5,-444 163.5,-438 169.5,-432 175.5,-432 175.5,-432 217.5,-432 217.5,-432 223.5,-432 229.5,-438 229.5,-444 229.5,-444 229.5,-456 229.5,-456 229.5,-462 223.5,-468 217.5,-468"/>
<text text-anchor="middle" x="196.5" y="-447.5" font-family="sans" font-size="10.00">filter_hom</text>
</g>
<!-- 3&#45;&gt;1 -->
<g id="edge3" class="edge">
<title>3&#45;&gt;1</title>
<path fill="none" stroke="grey" stroke-width="2" d="M171.11,-431.88C142.23,-410.6 96.94,-371.26 80.5,-324 72.62,-301.35 85.08,-219.91 88.5,-216 110.64,-190.72 203.07,-175.19 258.96,-167.92"/>
<polygon fill="grey" stroke="grey" stroke-width="2" points="259.46,-171.39 268.95,-166.66 258.59,-164.44 259.46,-171.39"/>
</g>
<!-- 4 -->
<g id="node5" class="node">
<title>4</title>
<path fill="none" stroke="#567bd8" stroke-width="2" d="M496.5,-252C496.5,-252 322.5,-252 322.5,-252 316.5,-252 310.5,-246 310.5,-240 310.5,-240 310.5,-228 310.5,-228 310.5,-222 316.5,-216 322.5,-216 322.5,-216 496.5,-216 496.5,-216 502.5,-216 508.5,-222 508.5,-228 508.5,-228 508.5,-240 508.5,-240 508.5,-246 502.5,-252 496.5,-252"/>
<text text-anchor="middle" x="409.5" y="-231.5" font-family="sans" font-size="10.00">convert_to_vcf_child_mother_phased</text>
</g>
<!-- 4&#45;&gt;1 -->
<g id="edge4" class="edge">
<title>4&#45;&gt;1</title>
<path fill="none" stroke="grey" stroke-width="2" d="M383.32,-215.88C369.46,-206.81 352.26,-195.55 337.29,-185.76"/>
<polygon fill="grey" stroke="grey" stroke-width="2" points="339.06,-182.74 328.78,-180.19 335.23,-188.59 339.06,-182.74"/>
</g>
<!-- 5 -->
<g id="node6" class="node">
<title>5</title>
<path fill="none" stroke="#567bd8" stroke-width="2" d="M505,-324C505,-324 324,-324 324,-324 318,-324 312,-318 312,-312 312,-312 312,-300 312,-300 312,-294 318,-288 324,-288 324,-288 505,-288 505,-288 511,-288 517,-294 517,-300 517,-300 517,-312 517,-312 517,-318 511,-324 505,-324"/>
<text text-anchor="middle" x="414.5" y="-303.5" font-family="sans" font-size="10.00">intersect_child_het_mother_not_father</text>
</g>
<!-- 5&#45;&gt;4 -->
<g id="edge6" class="edge">
<title>5&#45;&gt;4</title>
<path fill="none" stroke="grey" stroke-width="2" d="M413.26,-287.7C412.71,-279.98 412.05,-270.71 411.44,-262.11"/>
<polygon fill="grey" stroke="grey" stroke-width="2" points="414.93,-261.83 410.72,-252.1 407.94,-262.33 414.93,-261.83"/>
</g>
<!-- 6&#45;&gt;5 -->
<g id="edge7" class="edge">
<title>6&#45;&gt;5</title>
<path fill="none" stroke="grey" stroke-width="2" d="M267.96,-359.88C295.07,-350.09 329.24,-337.77 357.76,-327.47"/>
<polygon fill="grey" stroke="grey" stroke-width="2" points="358.98,-330.75 367.2,-324.07 356.6,-324.17 358.98,-330.75"/>
</g>
<!-- 9 -->
<g id="node10" class="node">
<title>9</title>
<path fill="none" stroke="#567bd8" stroke-width="2" d="M282,-324C282,-324 101,-324 101,-324 95,-324 89,-318 89,-312 89,-312 89,-300 89,-300 89,-294 95,-288 101,-288 101,-288 282,-288 282,-288 288,-288 294,-294 294,-300 294,-300 294,-312 294,-312 294,-318 288,-324 282,-324"/>
<text text-anchor="middle" x="191.5" y="-303.5" font-family="sans" font-size="10.00">intersect_child_het_father_not_mother</text>
</g>
<!-- 6&#45;&gt;9 -->
<g id="edge13" class="edge">
<title>6&#45;&gt;9</title>
<path fill="none" stroke="grey" stroke-width="2" d="M213.33,-359.7C210.07,-351.81 206.13,-342.3 202.5,-333.55"/>
<polygon fill="grey" stroke="grey" stroke-width="2" points="205.65,-332 198.59,-324.1 199.18,-334.68 205.65,-332"/>
</g>
<!-- 7&#45;&gt;5 -->
<g id="edge8" class="edge">
<title>7&#45;&gt;5</title>
<path fill="none" stroke="grey" stroke-width="2" d="M391.92,-359.7C395.29,-351.81 399.37,-342.3 403.12,-333.55"/>
<polygon fill="grey" stroke="grey" stroke-width="2" points="406.45,-334.67 407.17,-324.1 400.01,-331.92 406.45,-334.67"/>
</g>
<!-- 7&#45;&gt;9 -->
<g id="edge12" class="edge">
<title>7&#45;&gt;9</title>
<path fill="none" stroke="grey" stroke-width="2" d="M337.29,-359.88C310.43,-350.14 276.62,-337.87 248.32,-327.61"/>
<polygon fill="grey" stroke="grey" stroke-width="2" points="249.15,-324.19 238.56,-324.07 246.77,-330.77 249.15,-324.19"/>
</g>
<!-- 8 -->
<g id="node9" class="node">
<title>8</title>
<path fill="none" stroke="#567bd8" stroke-width="2" d="M277.5,-252C277.5,-252 109.5,-252 109.5,-252 103.5,-252 97.5,-246 97.5,-240 97.5,-240 97.5,-228 97.5,-228 97.5,-222 103.5,-216 109.5,-216 109.5,-216 277.5,-216 277.5,-216 283.5,-216 289.5,-222 289.5,-228 289.5,-228 289.5,-240 289.5,-240 289.5,-246 283.5,-252 277.5,-252"/>
<text text-anchor="middle" x="193.5" y="-231.5" font-family="sans" font-size="10.00">convert_to_vcf_child_father_phased</text>
</g>
<!-- 8&#45;&gt;1 -->
<g id="edge5" class="edge">
<title>8&#45;&gt;1</title>
<path fill="none" stroke="grey" stroke-width="2" d="M220.16,-215.88C234.28,-206.81 251.81,-195.55 267.06,-185.76"/>
<polygon fill="grey" stroke="grey" stroke-width="2" points="269.21,-188.54 275.73,-180.19 265.43,-182.65 269.21,-188.54"/>
</g>
<!-- 9&#45;&gt;8 -->
<g id="edge11" class="edge">
<title>9&#45;&gt;8</title>
<path fill="none" stroke="grey" stroke-width="2" d="M191.99,-287.7C192.21,-279.98 192.48,-270.71 192.73,-262.11"/>
<polygon fill="grey" stroke="grey" stroke-width="2" points="196.22,-262.2 193.01,-252.1 189.23,-262 196.22,-262.2"/>
</g>
<!-- 10 -->
<g id="node11" class="node">
<title>10</title>
<path fill="none" stroke="#d85656" stroke-width="2" d="M279.5,-556C279.5,-556 193.5,-556 193.5,-556 187.5,-556 181.5,-550 181.5,-544 181.5,-544 181.5,-516 181.5,-516 181.5,-510 187.5,-504 193.5,-504 193.5,-504 279.5,-504 279.5,-504 285.5,-504 291.5,-510 291.5,-516 291.5,-516 291.5,-544 291.5,-544 291.5,-550 285.5,-556 279.5,-556"/>
<text text-anchor="middle" x="236.5" y="-544" font-family="sans" font-size="10.00">Config YAML</text>
<text text-anchor="middle" x="236.5" y="-533" font-family="sans" font-size="10.00">sample IDs</text>
<text text-anchor="middle" x="236.5" y="-522" font-family="sans" font-size="10.00">BCF paths</text>
<text text-anchor="middle" x="236.5" y="-511" font-family="sans" font-size="10.00">child|mother|father</text>
</g>
<!-- 10&#45;&gt;2 -->
<g id="edge14" class="edge">
<title>10&#45;&gt;2</title>
<path fill="none" stroke="grey" stroke-width="2" d="M257.75,-503.89C265.25,-495.03 273.68,-485.06 281.19,-476.19"/>
<polygon fill="grey" stroke="grey" stroke-width="2" points="283.98,-478.31 287.77,-468.41 278.64,-473.78 283.98,-478.31"/>
</g>
<!-- 10&#45;&gt;3 -->
<g id="edge15" class="edge">
<title>10&#45;&gt;3</title>
<path fill="none" stroke="grey" stroke-width="2" d="M223.62,-503.89C219.31,-495.48 214.49,-486.07 210.12,-477.55"/>
<polygon fill="grey" stroke="grey" stroke-width="2" points="213.11,-475.71 205.43,-468.41 206.88,-478.91 213.11,-475.71"/>
</g>
</g>
</svg>
