<?xml version="1.0" encoding="UTF-8" standalone="no"?>
<!DOCTYPE svg PUBLIC "-//W3C//DTD SVG 1.1//EN"
 "http://www.w3.org/Graphics/SVG/1.1/DTD/svg11.dtd">
<!-- Generated by graphviz version 2.43.0 (0)
 -->
<!-- Title: snakemake_dag Pages: 1 -->
<svg width="472pt" height="1084pt"
 viewBox="0.00 0.00 471.50 1084.00" xmlns="http://www.w3.org/2000/svg" xmlns:xlink="http://www.w3.org/1999/xlink">
<g id="graph0" class="graph" transform="scale(1 1) rotate(0) translate(4 1080)">
<title>snakemake_dag</title>
<polygon fill="white" stroke="transparent" points="-4,4 -4,-1080 467.5,-1080 467.5,4 -4,4"/>
<!-- 0 -->
<g id="node1" class="node">
<title>0</title>
<path fill="none" stroke="#b6d856" stroke-width="2" d="M267,-113C267,-113 223,-113 223,-113 217,-113 211,-107 211,-101 211,-101 211,-89 211,-89 211,-83 217,-77 223,-77 223,-77 267,-77 267,-77 273,-77 279,-83 279,-89 279,-89 279,-101 279,-101 279,-107 273,-113 267,-113"/>
<text text-anchor="middle" x="245" y="-92.5" font-family="sans" font-size="10.00">results_dir</text>
</g>
<!-- 14 -->
<g id="node15" class="node">
<title>14</title>
<path fill="none" stroke="#d85656" stroke-width="2" d="M90,-41C90,-41 12,-41 12,-41 6,-41 0,-35 0,-29 0,-29 0,-12 0,-12 0,-6 6,0 12,0 12,0 90,0 90,0 96,0 102,-6 102,-12 102,-12 102,-29 102,-29 102,-35 96,-41 90,-41"/>
<text text-anchor="middle" x="51" y="-29" font-family="sans" font-size="10.00">01_preprocessing</text>
<text text-anchor="middle" x="51" y="-18" font-family="sans" font-size="10.00">trim fastq</text>
<text text-anchor="middle" x="51" y="-7" font-family="sans" font-size="10.00">QC reports</text>
</g>
<!-- 0&#45;&gt;14 -->
<g id="edge15" class="edge">
<title>0&#45;&gt;14</title>
<path fill="none" stroke="grey" stroke-width="2" d="M210.76,-81.21C183.34,-70.96 144.19,-56.32 111.5,-44.11"/>
<polygon fill="grey" stroke="grey" stroke-width="2" points="112.62,-40.79 102.03,-40.57 110.17,-47.35 112.62,-40.79"/>
</g>
<!-- 15 -->
<g id="node16" class="node">
<title>15</title>
<path fill="none" stroke="#d85656" stroke-width="2" d="M182,-38.5C182,-38.5 132,-38.5 132,-38.5 126,-38.5 120,-32.5 120,-26.5 120,-26.5 120,-14.5 120,-14.5 120,-8.5 126,-2.5 132,-2.5 132,-2.5 182,-2.5 182,-2.5 188,-2.5 194,-8.5 194,-14.5 194,-14.5 194,-26.5 194,-26.5 194,-32.5 188,-38.5 182,-38.5"/>
<text text-anchor="middle" x="157" y="-23.5" font-family="sans" font-size="10.00">02_mapped</text>
<text text-anchor="middle" x="157" y="-12.5" font-family="sans" font-size="10.00">BAM files</text>
</g>
<!-- 0&#45;&gt;15 -->
<g id="edge16" class="edge">
<title>0&#45;&gt;15</title>
<path fill="none" stroke="grey" stroke-width="2" d="M224.15,-76.82C212.64,-67.34 198.18,-55.43 185.63,-45.08"/>
<polygon fill="grey" stroke="grey" stroke-width="2" points="187.65,-42.22 177.71,-38.56 183.2,-47.62 187.65,-42.22"/>
</g>
<!-- 16 -->
<g id="node17" class="node">
<title>16</title>
<path fill="none" stroke="#d85656" stroke-width="2" d="M265.5,-38.5C265.5,-38.5 224.5,-38.5 224.5,-38.5 218.5,-38.5 212.5,-32.5 212.5,-26.5 212.5,-26.5 212.5,-14.5 212.5,-14.5 212.5,-8.5 218.5,-2.5 224.5,-2.5 224.5,-2.5 265.5,-2.5 265.5,-2.5 271.5,-2.5 277.5,-8.5 277.5,-14.5 277.5,-14.5 277.5,-26.5 277.5,-26.5 277.5,-32.5 271.5,-38.5 265.5,-38.5"/>
<text text-anchor="middle" x="245" y="-23.5" font-family="sans" font-size="10.00">03_calls</text>
<text text-anchor="middle" x="245" y="-12.5" font-family="sans" font-size="10.00">final BCFs</text>
</g>
<!-- 0&#45;&gt;16 -->
<g id="edge17" class="edge">
<title>0&#45;&gt;16</title>
<path fill="none" stroke="grey" stroke-width="2" d="M245,-76.82C245,-68.42 245,-58.12 245,-48.69"/>
<polygon fill="grey" stroke="grey" stroke-width="2" points="248.5,-48.56 245,-38.56 241.5,-48.56 248.5,-48.56"/>
</g>
<!-- 17 -->
<g id="node18" class="node">
<title>17</title>
<path fill="none" stroke="#d85656" stroke-width="2" d="M338,-38.5C338,-38.5 308,-38.5 308,-38.5 302,-38.5 296,-32.5 296,-26.5 296,-26.5 296,-14.5 296,-14.5 296,-8.5 302,-2.5 308,-2.5 308,-2.5 338,-2.5 338,-2.5 344,-2.5 350,-8.5 350,-14.5 350,-14.5 350,-26.5 350,-26.5 350,-32.5 344,-38.5 338,-38.5"/>
<text text-anchor="middle" x="323" y="-18" font-family="sans" font-size="10.00">logs</text>
</g>
<!-- 0&#45;&gt;17 -->
<g id="edge18" class="edge">
<title>0&#45;&gt;17</title>
<path fill="none" stroke="grey" stroke-width="2" d="M263.48,-76.82C273.59,-67.43 286.26,-55.65 297.31,-45.38"/>
<polygon fill="grey" stroke="grey" stroke-width="2" points="299.71,-47.93 304.65,-38.56 294.94,-42.8 299.71,-47.93"/>
</g>
<!-- 18 -->
<g id="node19" class="node">
<title>18</title>
<path fill="none" stroke="#d85656" stroke-width="2" d="M451.5,-38.5C451.5,-38.5 380.5,-38.5 380.5,-38.5 374.5,-38.5 368.5,-32.5 368.5,-26.5 368.5,-26.5 368.5,-14.5 368.5,-14.5 368.5,-8.5 374.5,-2.5 380.5,-2.5 380.5,-2.5 451.5,-2.5 451.5,-2.5 457.5,-2.5 463.5,-8.5 463.5,-14.5 463.5,-14.5 463.5,-26.5 463.5,-26.5 463.5,-32.5 457.5,-38.5 451.5,-38.5"/>
<text text-anchor="middle" x="416" y="-18" font-family="sans" font-size="10.00">run_config.yaml</text>
</g>
<!-- 0&#45;&gt;18 -->
<g id="edge19" class="edge">
<title>0&#45;&gt;18</title>
<path fill="none" stroke="grey" stroke-width="2" d="M279.19,-79.5C304.24,-68.88 338.6,-54.32 366.62,-42.44"/>
<polygon fill="grey" stroke="grey" stroke-width="2" points="368.02,-45.64 375.86,-38.52 365.29,-39.2 368.02,-45.64"/>
</g>
<!-- 1 -->
<g id="node2" class="node">
<title>1</title>
<path fill="none" stroke="#567bd8" stroke-width="2" d="M276.5,-185C276.5,-185 213.5,-185 213.5,-185 207.5,-185 201.5,-179 201.5,-173 201.5,-173 201.5,-161 201.5,-161 201.5,-155 207.5,-149 213.5,-149 213.5,-149 276.5,-149 276.5,-149 282.5,-149 288.5,-155 288.5,-161 288.5,-161 288.5,-173 288.5,-173 288.5,-179 282.5,-185 276.5,-185"/>
<text text-anchor="middle" x="245" y="-164.5" font-family="sans" font-size="10.00">bcftools_index</text>
</g>
<!-- 1&#45;&gt;0 -->
<g id="edge1" class="edge">
<title>1&#45;&gt;0</title>
<path fill="none" stroke="grey" stroke-width="2" d="M245,-148.7C245,-140.98 245,-131.71 245,-123.11"/>
<polygon fill="grey" stroke="grey" stroke-width="2" points="248.5,-123.1 245,-113.1 241.5,-123.1 248.5,-123.1"/>
</g>
<!-- 2 -->
<g id="node3" class="node">
<title>2</title>
<path fill="none" stroke="#567bd8" stroke-width="2" d="M274.5,-257C274.5,-257 215.5,-257 215.5,-257 209.5,-257 203.5,-251 203.5,-245 203.5,-245 203.5,-233 203.5,-233 203.5,-227 209.5,-221 215.5,-221 215.5,-221 274.5,-221 274.5,-221 280.5,-221 286.5,-227 286.5,-233 286.5,-233 286.5,-245 286.5,-245 286.5,-251 280.5,-257 274.5,-257"/>
<text text-anchor="middle" x="245" y="-236.5" font-family="sans" font-size="10.00">bcftools_filter</text>
</g>
<!-- 2&#45;&gt;1 -->
<g id="edge2" class="edge">
<title>2&#45;&gt;1</title>
<path fill="none" stroke="grey" stroke-width="2" d="M245,-220.7C245,-212.98 245,-203.71 245,-195.11"/>
<polygon fill="grey" stroke="grey" stroke-width="2" points="248.5,-195.1 245,-185.1 241.5,-195.1 248.5,-195.1"/>
</g>
<!-- 3 -->
<g id="node4" class="node">
<title>3</title>
<path fill="none" stroke="#567bd8" stroke-width="2" d="M276,-329C276,-329 214,-329 214,-329 208,-329 202,-323 202,-317 202,-317 202,-305 202,-305 202,-299 208,-293 214,-293 214,-293 276,-293 276,-293 282,-293 288,-299 288,-305 288,-305 288,-317 288,-317 288,-323 282,-329 276,-329"/>
<text text-anchor="middle" x="245" y="-308.5" font-family="sans" font-size="10.00">bcftools_norm</text>
</g>
<!-- 3&#45;&gt;2 -->
<g id="edge3" class="edge">
<title>3&#45;&gt;2</title>
<path fill="none" stroke="grey" stroke-width="2" d="M245,-292.7C245,-284.98 245,-275.71 245,-267.11"/>
<polygon fill="grey" stroke="grey" stroke-width="2" points="248.5,-267.1 245,-257.1 241.5,-267.1 248.5,-267.1"/>
</g>
<!-- 4 -->
<g id="node5" class="node">
<title>4</title>
<path fill="none" stroke="#567bd8" stroke-width="2" d="M271.5,-401C271.5,-401 218.5,-401 218.5,-401 212.5,-401 206.5,-395 206.5,-389 206.5,-389 206.5,-377 206.5,-377 206.5,-371 212.5,-365 218.5,-365 218.5,-365 271.5,-365 271.5,-365 277.5,-365 283.5,-371 283.5,-377 283.5,-377 283.5,-389 283.5,-389 283.5,-395 277.5,-401 271.5,-401"/>
<text text-anchor="middle" x="245" y="-380.5" font-family="sans" font-size="10.00">bcftools_call</text>
</g>
<!-- 4&#45;&gt;3 -->
<g id="edge4" class="edge">
<title>4&#45;&gt;3</title>
<path fill="none" stroke="grey" stroke-width="2" d="M245,-364.7C245,-356.98 245,-347.71 245,-339.11"/>
<polygon fill="grey" stroke="grey" stroke-width="2" points="248.5,-339.1 245,-329.1 241.5,-339.1 248.5,-339.1"/>
</g>
<!-- 5 -->
<g id="node6" class="node">
<title>5</title>
<path fill="none" stroke="#567bd8" stroke-width="2" d="M283,-473C283,-473 207,-473 207,-473 201,-473 195,-467 195,-461 195,-461 195,-449 195,-449 195,-443 201,-437 207,-437 207,-437 283,-437 283,-437 289,-437 295,-443 295,-449 295,-449 295,-461 295,-461 295,-467 289,-473 283,-473"/>
<text text-anchor="middle" x="245" y="-452.5" font-family="sans" font-size="10.00">bcftools_mpileup</text>
</g>
<!-- 5&#45;&gt;4 -->
<g id="edge5" class="edge">
<title>5&#45;&gt;4</title>
<path fill="none" stroke="grey" stroke-width="2" d="M245,-436.7C245,-428.98 245,-419.71 245,-411.11"/>
<polygon fill="grey" stroke="grey" stroke-width="2" points="248.5,-411.1 245,-401.1 241.5,-411.1 248.5,-411.1"/>
</g>
<!-- 6 -->
<g id="node7" class="node">
<title>6</title>
<path fill="none" stroke="#567bd8" stroke-width="2" d="M288,-617C288,-617 202,-617 202,-617 196,-617 190,-611 190,-605 190,-605 190,-593 190,-593 190,-587 196,-581 202,-581 202,-581 288,-581 288,-581 294,-581 300,-587 300,-593 300,-593 300,-605 300,-605 300,-611 294,-617 288,-617"/>
<text text-anchor="middle" x="245" y="-596.5" font-family="sans" font-size="10.00">samtools_markdup</text>
</g>
<!-- 6&#45;&gt;5 -->
<g id="edge6" class="edge">
<title>6&#45;&gt;5</title>
<path fill="none" stroke="grey" stroke-width="2" d="M233.11,-580.72C226.99,-570.76 220.16,-557.73 217,-545 213.15,-529.47 213.15,-524.53 217,-509 219.29,-499.75 223.53,-490.34 228.02,-482.07"/>
<polygon fill="grey" stroke="grey" stroke-width="2" points="231.13,-483.68 233.11,-473.28 225.07,-480.17 231.13,-483.68"/>
</g>
<!-- 12 -->
<g id="node13" class="node">
<title>12</title>
<path fill="none" stroke="#567bd8" stroke-width="2" d="M345.5,-545C345.5,-545 238.5,-545 238.5,-545 232.5,-545 226.5,-539 226.5,-533 226.5,-533 226.5,-521 226.5,-521 226.5,-515 232.5,-509 238.5,-509 238.5,-509 345.5,-509 345.5,-509 351.5,-509 357.5,-515 357.5,-521 357.5,-521 357.5,-533 357.5,-533 357.5,-539 351.5,-545 345.5,-545"/>
<text text-anchor="middle" x="292" y="-524.5" font-family="sans" font-size="10.00">samtools_index_rmdup</text>
</g>
<!-- 6&#45;&gt;12 -->
<g id="edge13" class="edge">
<title>6&#45;&gt;12</title>
<path fill="none" stroke="grey" stroke-width="2" d="M256.62,-580.7C262.14,-572.47 268.85,-562.48 274.93,-553.42"/>
<polygon fill="grey" stroke="grey" stroke-width="2" points="277.85,-555.36 280.52,-545.1 272.04,-551.46 277.85,-555.36"/>
</g>
<!-- 7 -->
<g id="node8" class="node">
<title>7</title>
<path fill="none" stroke="#567bd8" stroke-width="2" d="M276,-689C276,-689 214,-689 214,-689 208,-689 202,-683 202,-677 202,-677 202,-665 202,-665 202,-659 208,-653 214,-653 214,-653 276,-653 276,-653 282,-653 288,-659 288,-665 288,-665 288,-677 288,-677 288,-683 282,-689 276,-689"/>
<text text-anchor="middle" x="245" y="-668.5" font-family="sans" font-size="10.00">samtools_sort</text>
</g>
<!-- 7&#45;&gt;6 -->
<g id="edge8" class="edge">
<title>7&#45;&gt;6</title>
<path fill="none" stroke="grey" stroke-width="2" d="M245,-652.7C245,-644.98 245,-635.71 245,-627.11"/>
<polygon fill="grey" stroke="grey" stroke-width="2" points="248.5,-627.1 245,-617.1 241.5,-627.1 248.5,-627.1"/>
</g>
<!-- 8 -->
<g id="node9" class="node">
<title>8</title>
<path fill="none" stroke="#567bd8" stroke-width="2" d="M285,-761C285,-761 205,-761 205,-761 199,-761 193,-755 193,-749 193,-749 193,-737 193,-737 193,-731 199,-725 205,-725 205,-725 285,-725 285,-725 291,-725 297,-731 297,-737 297,-737 297,-749 297,-749 297,-755 291,-761 285,-761"/>
<text text-anchor="middle" x="245" y="-740.5" font-family="sans" font-size="10.00">samtools_fixmate</text>
</g>
<!-- 8&#45;&gt;7 -->
<g id="edge9" class="edge">
<title>8&#45;&gt;7</title>
<path fill="none" stroke="grey" stroke-width="2" d="M245,-724.7C245,-716.98 245,-707.71 245,-699.11"/>
<polygon fill="grey" stroke="grey" stroke-width="2" points="248.5,-699.1 245,-689.1 241.5,-699.1 248.5,-699.1"/>
</g>
<!-- 9 -->
<g id="node10" class="node">
<title>9</title>
<path fill="none" stroke="#567bd8" stroke-width="2" d="M277.5,-833C277.5,-833 212.5,-833 212.5,-833 206.5,-833 200.5,-827 200.5,-821 200.5,-821 200.5,-809 200.5,-809 200.5,-803 206.5,-797 212.5,-797 212.5,-797 277.5,-797 277.5,-797 283.5,-797 289.5,-803 289.5,-809 289.5,-809 289.5,-821 289.5,-821 289.5,-827 283.5,-833 277.5,-833"/>
<text text-anchor="middle" x="245" y="-812.5" font-family="sans" font-size="10.00">samtools_rsort</text>
</g>
<!-- 9&#45;&gt;8 -->
<g id="edge10" class="edge">
<title>9&#45;&gt;8</title>
<path fill="none" stroke="grey" stroke-width="2" d="M245,-796.7C245,-788.98 245,-779.71 245,-771.11"/>
<polygon fill="grey" stroke="grey" stroke-width="2" points="248.5,-771.1 245,-761.1 241.5,-771.1 248.5,-771.1"/>
</g>
<!-- 10 -->
<g id="node11" class="node">
<title>10</title>
<path fill="none" stroke="#567bd8" stroke-width="2" d="M267,-905C267,-905 223,-905 223,-905 217,-905 211,-899 211,-893 211,-893 211,-881 211,-881 211,-875 217,-869 223,-869 223,-869 267,-869 267,-869 273,-869 279,-875 279,-881 279,-881 279,-893 279,-893 279,-899 273,-905 267,-905"/>
<text text-anchor="middle" x="245" y="-884.5" font-family="sans" font-size="10.00">bwa_mem</text>
</g>
<!-- 10&#45;&gt;9 -->
<g id="edge11" class="edge">
<title>10&#45;&gt;9</title>
<path fill="none" stroke="grey" stroke-width="2" d="M245,-868.7C245,-860.98 245,-851.71 245,-843.11"/>
<polygon fill="grey" stroke="grey" stroke-width="2" points="248.5,-843.1 245,-833.1 241.5,-843.1 248.5,-843.1"/>
</g>
<!-- 11 -->
<g id="node12" class="node">
<title>11</title>
<path fill="none" stroke="#567bd8" stroke-width="2" d="M260,-977C260,-977 230,-977 230,-977 224,-977 218,-971 218,-965 218,-965 218,-953 218,-953 218,-947 224,-941 230,-941 230,-941 260,-941 260,-941 266,-941 272,-947 272,-953 272,-953 272,-965 272,-965 272,-971 266,-977 260,-977"/>
<text text-anchor="middle" x="245" y="-956.5" font-family="sans" font-size="10.00">fastp</text>
</g>
<!-- 11&#45;&gt;10 -->
<g id="edge12" class="edge">
<title>11&#45;&gt;10</title>
<path fill="none" stroke="grey" stroke-width="2" d="M245,-940.7C245,-932.98 245,-923.71 245,-915.11"/>
<polygon fill="grey" stroke="grey" stroke-width="2" points="248.5,-915.1 245,-905.1 241.5,-915.1 248.5,-915.1"/>
</g>
<!-- 12&#45;&gt;5 -->
<g id="edge7" class="edge">
<title>12&#45;&gt;5</title>
<path fill="none" stroke="grey" stroke-width="2" d="M280.38,-508.7C274.86,-500.47 268.15,-490.48 262.07,-481.42"/>
<polygon fill="grey" stroke="grey" stroke-width="2" points="264.96,-479.46 256.48,-473.1 259.15,-483.36 264.96,-479.46"/>
</g>
<!-- 13 -->
<g id="node14" class="node">
<title>13</title>
<path fill="none" stroke="#d85656" stroke-width="2" d="M273,-1076C273,-1076 217,-1076 217,-1076 211,-1076 205,-1070 205,-1064 205,-1064 205,-1025 205,-1025 205,-1019 211,-1013 217,-1013 217,-1013 273,-1013 273,-1013 279,-1013 285,-1019 285,-1025 285,-1025 285,-1064 285,-1064 285,-1070 279,-1076 273,-1076"/>
<text text-anchor="middle" x="245" y="-1064" font-family="sans" font-size="10.00">Config YAML:</text>
<text text-anchor="middle" x="245" y="-1053" font-family="sans" font-size="10.00">samples</text>
<text text-anchor="middle" x="245" y="-1042" font-family="sans" font-size="10.00">fastq_dir</text>
<text text-anchor="middle" x="245" y="-1031" font-family="sans" font-size="10.00">genome</text>
<text text-anchor="middle" x="245" y="-1020" font-family="sans" font-size="10.00">params</text>
</g>
<!-- 13&#45;&gt;11 -->
<g id="edge14" class="edge">
<title>13&#45;&gt;11</title>
<path fill="none" stroke="grey" stroke-width="2" d="M245,-1012.88C245,-1004.47 245,-995.4 245,-987.19"/>
<polygon fill="grey" stroke="grey" stroke-width="2" points="248.5,-987.03 245,-977.03 241.5,-987.03 248.5,-987.03"/>
</g>
</g>
</svg>
