<?xml version="1.0" encoding="UTF-8" standalone="no"?>
<!DOCTYPE svg PUBLIC "-//W3C//DTD SVG 1.1//EN"
 "http://www.w3.org/Graphics/SVG/1.1/DTD/svg11.dtd">
<!-- Generated by graphviz version 2.43.0 (0)
 -->
<!-- Title: snakemake_dag Pages: 1 -->
<svg width="128pt" height="476pt"
 viewBox="0.00 0.00 128.00 476.00" xmlns="http://www.w3.org/2000/svg" xmlns:xlink="http://www.w3.org/1999/xlink">
<g id="graph0" class="graph" transform="scale(1 1) rotate(0) translate(4 472)">
<title>snakemake_dag</title>
<polygon fill="white" stroke="transparent" points="-4,4 -4,-472 124,-472 124,4 -4,4"/>
<!-- 0 -->
<g id="node1" class="node">
<title>0</title>
<path fill="none" stroke="#97d856" stroke-width="2" d="M75,-36C75,-36 45,-36 45,-36 39,-36 33,-30 33,-24 33,-24 33,-12 33,-12 33,-6 39,0 45,0 45,0 75,0 75,0 81,0 87,-6 87,-12 87,-12 87,-24 87,-24 87,-30 81,-36 75,-36"/>
<text text-anchor="middle" x="60" y="-15.5" font-family="sans" font-size="10.00">Final VCF</text>
</g>
<!-- 1 -->
<g id="node2" class="node">
<title>1</title>
<path fill="none" stroke="#56d89a" stroke-width="2" d="M77.5,-108C77.5,-108 42.5,-108 42.5,-108 36.5,-108 30.5,-102 30.5,-96 30.5,-96 30.5,-84 30.5,-84 30.5,-78 36.5,-72 42.5,-72 42.5,-72 77.5,-72 77.5,-72 83.5,-72 89.5,-78 89.5,-84 89.5,-84 89.5,-96 89.5,-96 89.5,-102 83.5,-108 77.5,-108"/>
<text text-anchor="middle" x="60" y="-87.5" font-family="sans" font-size="10.00">filter_vcf</text>
</g>
<!-- 1&#45;&gt;0 -->
<g id="edge1" class="edge">
<title>1&#45;&gt;0</title>
<path fill="none" stroke="grey" stroke-width="2" d="M60,-71.7C60,-63.98 60,-54.71 60,-46.11"/>
<polygon fill="grey" stroke="grey" stroke-width="2" points="63.5,-46.1 60,-36.1 56.5,-46.1 63.5,-46.1"/>
</g>
<!-- 2 -->
<g id="node3" class="node">
<title>2</title>
<path fill="none" stroke="#569ad8" stroke-width="2" d="M80.5,-180C80.5,-180 39.5,-180 39.5,-180 33.5,-180 27.5,-174 27.5,-168 27.5,-168 27.5,-156 27.5,-156 27.5,-150 33.5,-144 39.5,-144 39.5,-144 80.5,-144 80.5,-144 86.5,-144 92.5,-150 92.5,-156 92.5,-156 92.5,-168 92.5,-168 92.5,-174 86.5,-180 80.5,-180"/>
<text text-anchor="middle" x="60" y="-159.5" font-family="sans" font-size="10.00">freebayes</text>
</g>
<!-- 2&#45;&gt;1 -->
<g id="edge2" class="edge">
<title>2&#45;&gt;1</title>
<path fill="none" stroke="grey" stroke-width="2" d="M60,-143.7C60,-135.98 60,-126.71 60,-118.11"/>
<polygon fill="grey" stroke="grey" stroke-width="2" points="63.5,-118.1 60,-108.1 56.5,-118.1 63.5,-118.1"/>
</g>
<!-- 3 -->
<g id="node4" class="node">
<title>3</title>
<path fill="none" stroke="#d85656" stroke-width="2" d="M108,-252C108,-252 12,-252 12,-252 6,-252 0,-246 0,-240 0,-240 0,-228 0,-228 0,-222 6,-216 12,-216 12,-216 108,-216 108,-216 114,-216 120,-222 120,-228 120,-228 120,-240 120,-240 120,-246 114,-252 108,-252"/>
<text text-anchor="middle" x="60" y="-231.5" font-family="sans" font-size="10.00">sambamba_markdup</text>
</g>
<!-- 3&#45;&gt;2 -->
<g id="edge3" class="edge">
<title>3&#45;&gt;2</title>
<path fill="none" stroke="grey" stroke-width="2" d="M60,-215.7C60,-207.98 60,-198.71 60,-190.11"/>
<polygon fill="grey" stroke="grey" stroke-width="2" points="63.5,-190.1 60,-180.1 56.5,-190.1 63.5,-190.1"/>
</g>
<!-- 4 -->
<g id="node5" class="node">
<title>4</title>
<path fill="none" stroke="#d89556" stroke-width="2" d="M95.5,-324C95.5,-324 24.5,-324 24.5,-324 18.5,-324 12.5,-318 12.5,-312 12.5,-312 12.5,-300 12.5,-300 12.5,-294 18.5,-288 24.5,-288 24.5,-288 95.5,-288 95.5,-288 101.5,-288 107.5,-294 107.5,-300 107.5,-300 107.5,-312 107.5,-312 107.5,-318 101.5,-324 95.5,-324"/>
<text text-anchor="middle" x="60" y="-303.5" font-family="sans" font-size="10.00">sambamba_sort</text>
</g>
<!-- 4&#45;&gt;3 -->
<g id="edge4" class="edge">
<title>4&#45;&gt;3</title>
<path fill="none" stroke="grey" stroke-width="2" d="M60,-287.7C60,-279.98 60,-270.71 60,-262.11"/>
<polygon fill="grey" stroke="grey" stroke-width="2" points="63.5,-262.1 60,-252.1 56.5,-262.1 63.5,-262.1"/>
</g>
<!-- 5 -->
<g id="node6" class="node">
<title>5</title>
<path fill="none" stroke="#56d8d8" stroke-width="2" d="M82,-396C82,-396 38,-396 38,-396 32,-396 26,-390 26,-384 26,-384 26,-372 26,-372 26,-366 32,-360 38,-360 38,-360 82,-360 82,-360 88,-360 94,-366 94,-372 94,-372 94,-384 94,-384 94,-390 88,-396 82,-396"/>
<text text-anchor="middle" x="60" y="-375.5" font-family="sans" font-size="10.00">bwa_mem</text>
</g>
<!-- 5&#45;&gt;4 -->
<g id="edge5" class="edge">
<title>5&#45;&gt;4</title>
<path fill="none" stroke="grey" stroke-width="2" d="M60,-359.7C60,-351.98 60,-342.71 60,-334.11"/>
<polygon fill="grey" stroke="grey" stroke-width="2" points="63.5,-334.1 60,-324.1 56.5,-334.1 63.5,-334.1"/>
</g>
<!-- 6 -->
<g id="node7" class="node">
<title>6</title>
<path fill="none" stroke="#59d856" stroke-width="2" d="M100.5,-468C100.5,-468 19.5,-468 19.5,-468 13.5,-468 7.5,-462 7.5,-456 7.5,-456 7.5,-444 7.5,-444 7.5,-438 13.5,-432 19.5,-432 19.5,-432 100.5,-432 100.5,-432 106.5,-432 112.5,-438 112.5,-444 112.5,-444 112.5,-456 112.5,-456 112.5,-462 106.5,-468 100.5,-468"/>
<text text-anchor="middle" x="60" y="-453" font-family="sans" font-size="10.00">fastp</text>
<text text-anchor="middle" x="60" y="-442" font-family="sans" font-size="10.00">sample: sampleID</text>
</g>
<!-- 6&#45;&gt;5 -->
<g id="edge6" class="edge">
<title>6&#45;&gt;5</title>
<path fill="none" stroke="grey" stroke-width="2" d="M60,-431.7C60,-423.98 60,-414.71 60,-406.11"/>
<polygon fill="grey" stroke="grey" stroke-width="2" points="63.5,-406.1 60,-396.1 56.5,-406.1 63.5,-406.1"/>
</g>
</g>
</svg>
