<?xml version="1.0" encoding="UTF-8" standalone="no"?>
<!DOCTYPE svg PUBLIC "-//W3C//DTD SVG 1.1//EN"
 "http://www.w3.org/Graphics/SVG/1.1/DTD/svg11.dtd">
<!-- Generated by graphviz version 2.43.0 (0)
 -->
<!-- Title: snakemake_dag Pages: 1 -->
<svg width="179pt" height="764pt"
 viewBox="0.00 0.00 179.00 764.00" xmlns="http://www.w3.org/2000/svg" xmlns:xlink="http://www.w3.org/1999/xlink">
<g id="graph0" class="graph" transform="scale(1 1) rotate(0) translate(4 760)">
<title>snakemake_dag</title>
<polygon fill="white" stroke="transparent" points="-4,4 -4,-760 175,-760 175,4 -4,4"/>
<!-- 0 -->
<g id="node1" class="node">
<title>0</title>
<path fill="none" stroke="#5682d8" stroke-width="2" d="M73.5,-36C73.5,-36 43.5,-36 43.5,-36 37.5,-36 31.5,-30 31.5,-24 31.5,-24 31.5,-12 31.5,-12 31.5,-6 37.5,0 43.5,0 43.5,0 73.5,0 73.5,0 79.5,0 85.5,-6 85.5,-12 85.5,-12 85.5,-24 85.5,-24 85.5,-30 79.5,-36 73.5,-36"/>
<text text-anchor="middle" x="58.5" y="-15.5" font-family="sans" font-size="10.00">all</text>
</g>
<!-- 1 -->
<g id="node2" class="node">
<title>1</title>
<path fill="none" stroke="#70d856" stroke-width="2" d="M90,-108C90,-108 27,-108 27,-108 21,-108 15,-102 15,-96 15,-96 15,-84 15,-84 15,-78 21,-72 27,-72 27,-72 90,-72 90,-72 96,-72 102,-78 102,-84 102,-84 102,-96 102,-96 102,-102 96,-108 90,-108"/>
<text text-anchor="middle" x="58.5" y="-87.5" font-family="sans" font-size="10.00">bcftools_index</text>
</g>
<!-- 1&#45;&gt;0 -->
<g id="edge1" class="edge">
<title>1&#45;&gt;0</title>
<path fill="none" stroke="grey" stroke-width="2" d="M58.5,-71.7C58.5,-63.98 58.5,-54.71 58.5,-46.11"/>
<polygon fill="grey" stroke="grey" stroke-width="2" points="62,-46.1 58.5,-36.1 55,-46.1 62,-46.1"/>
</g>
<!-- 2 -->
<g id="node3" class="node">
<title>2</title>
<path fill="none" stroke="#56d86b" stroke-width="2" d="M88,-180C88,-180 29,-180 29,-180 23,-180 17,-174 17,-168 17,-168 17,-156 17,-156 17,-150 23,-144 29,-144 29,-144 88,-144 88,-144 94,-144 100,-150 100,-156 100,-156 100,-168 100,-168 100,-174 94,-180 88,-180"/>
<text text-anchor="middle" x="58.5" y="-159.5" font-family="sans" font-size="10.00">bcftools_filter</text>
</g>
<!-- 2&#45;&gt;1 -->
<g id="edge2" class="edge">
<title>2&#45;&gt;1</title>
<path fill="none" stroke="grey" stroke-width="2" d="M58.5,-143.7C58.5,-135.98 58.5,-126.71 58.5,-118.11"/>
<polygon fill="grey" stroke="grey" stroke-width="2" points="62,-118.1 58.5,-108.1 55,-118.1 62,-118.1"/>
</g>
<!-- 3 -->
<g id="node4" class="node">
<title>3</title>
<path fill="none" stroke="#d8b456" stroke-width="2" d="M89.5,-252C89.5,-252 27.5,-252 27.5,-252 21.5,-252 15.5,-246 15.5,-240 15.5,-240 15.5,-228 15.5,-228 15.5,-222 21.5,-216 27.5,-216 27.5,-216 89.5,-216 89.5,-216 95.5,-216 101.5,-222 101.5,-228 101.5,-228 101.5,-240 101.5,-240 101.5,-246 95.5,-252 89.5,-252"/>
<text text-anchor="middle" x="58.5" y="-231.5" font-family="sans" font-size="10.00">bcftools_norm</text>
</g>
<!-- 3&#45;&gt;2 -->
<g id="edge3" class="edge">
<title>3&#45;&gt;2</title>
<path fill="none" stroke="grey" stroke-width="2" d="M58.5,-215.7C58.5,-207.98 58.5,-198.71 58.5,-190.11"/>
<polygon fill="grey" stroke="grey" stroke-width="2" points="62,-190.1 58.5,-180.1 55,-190.1 62,-190.1"/>
</g>
<!-- 4 -->
<g id="node5" class="node">
<title>4</title>
<path fill="none" stroke="#ced856" stroke-width="2" d="M85,-324C85,-324 32,-324 32,-324 26,-324 20,-318 20,-312 20,-312 20,-300 20,-300 20,-294 26,-288 32,-288 32,-288 85,-288 85,-288 91,-288 97,-294 97,-300 97,-300 97,-312 97,-312 97,-318 91,-324 85,-324"/>
<text text-anchor="middle" x="58.5" y="-303.5" font-family="sans" font-size="10.00">bcftools_call</text>
</g>
<!-- 4&#45;&gt;3 -->
<g id="edge4" class="edge">
<title>4&#45;&gt;3</title>
<path fill="none" stroke="grey" stroke-width="2" d="M58.5,-287.7C58.5,-279.98 58.5,-270.71 58.5,-262.11"/>
<polygon fill="grey" stroke="grey" stroke-width="2" points="62,-262.1 58.5,-252.1 55,-262.1 62,-262.1"/>
</g>
<!-- 5 -->
<g id="node6" class="node">
<title>5</title>
<path fill="none" stroke="#56d89a" stroke-width="2" d="M96.5,-396C96.5,-396 20.5,-396 20.5,-396 14.5,-396 8.5,-390 8.5,-384 8.5,-384 8.5,-372 8.5,-372 8.5,-366 14.5,-360 20.5,-360 20.5,-360 96.5,-360 96.5,-360 102.5,-360 108.5,-366 108.5,-372 108.5,-372 108.5,-384 108.5,-384 108.5,-390 102.5,-396 96.5,-396"/>
<text text-anchor="middle" x="58.5" y="-375.5" font-family="sans" font-size="10.00">bcftools_mpileup</text>
</g>
<!-- 5&#45;&gt;4 -->
<g id="edge5" class="edge">
<title>5&#45;&gt;4</title>
<path fill="none" stroke="grey" stroke-width="2" d="M58.5,-359.7C58.5,-351.98 58.5,-342.71 58.5,-334.11"/>
<polygon fill="grey" stroke="grey" stroke-width="2" points="62,-334.1 58.5,-324.1 55,-334.1 62,-334.1"/>
</g>
<!-- 6 -->
<g id="node7" class="node">
<title>6</title>
<path fill="none" stroke="#56b1d8" stroke-width="2" d="M101.5,-540C101.5,-540 15.5,-540 15.5,-540 9.5,-540 3.5,-534 3.5,-528 3.5,-528 3.5,-516 3.5,-516 3.5,-510 9.5,-504 15.5,-504 15.5,-504 101.5,-504 101.5,-504 107.5,-504 113.5,-510 113.5,-516 113.5,-516 113.5,-528 113.5,-528 113.5,-534 107.5,-540 101.5,-540"/>
<text text-anchor="middle" x="58.5" y="-519.5" font-family="sans" font-size="10.00">samtools_markdup</text>
</g>
<!-- 6&#45;&gt;5 -->
<g id="edge6" class="edge">
<title>6&#45;&gt;5</title>
<path fill="none" stroke="grey" stroke-width="2" d="M46.61,-503.72C40.49,-493.76 33.66,-480.73 30.5,-468 26.65,-452.47 26.65,-447.53 30.5,-432 32.79,-422.75 37.03,-413.34 41.52,-405.07"/>
<polygon fill="grey" stroke="grey" stroke-width="2" points="44.63,-406.68 46.61,-396.28 38.57,-403.17 44.63,-406.68"/>
</g>
<!-- 10 -->
<g id="node11" class="node">
<title>10</title>
<path fill="none" stroke="#56d8c9" stroke-width="2" d="M159,-468C159,-468 52,-468 52,-468 46,-468 40,-462 40,-456 40,-456 40,-444 40,-444 40,-438 46,-432 52,-432 52,-432 159,-432 159,-432 165,-432 171,-438 171,-444 171,-444 171,-456 171,-456 171,-462 165,-468 159,-468"/>
<text text-anchor="middle" x="105.5" y="-447.5" font-family="sans" font-size="10.00">samtools_index_rmdup</text>
</g>
<!-- 6&#45;&gt;10 -->
<g id="edge11" class="edge">
<title>6&#45;&gt;10</title>
<path fill="none" stroke="grey" stroke-width="2" d="M70.12,-503.7C75.64,-495.47 82.35,-485.48 88.43,-476.42"/>
<polygon fill="grey" stroke="grey" stroke-width="2" points="91.35,-478.36 94.02,-468.1 85.54,-474.46 91.35,-478.36"/>
</g>
<!-- 7 -->
<g id="node8" class="node">
<title>7</title>
<path fill="none" stroke="#d88556" stroke-width="2" d="M89.5,-612C89.5,-612 27.5,-612 27.5,-612 21.5,-612 15.5,-606 15.5,-600 15.5,-600 15.5,-588 15.5,-588 15.5,-582 21.5,-576 27.5,-576 27.5,-576 89.5,-576 89.5,-576 95.5,-576 101.5,-582 101.5,-588 101.5,-588 101.5,-600 101.5,-600 101.5,-606 95.5,-612 89.5,-612"/>
<text text-anchor="middle" x="58.5" y="-591.5" font-family="sans" font-size="10.00">samtools_sort</text>
</g>
<!-- 7&#45;&gt;6 -->
<g id="edge8" class="edge">
<title>7&#45;&gt;6</title>
<path fill="none" stroke="grey" stroke-width="2" d="M58.5,-575.7C58.5,-567.98 58.5,-558.71 58.5,-550.11"/>
<polygon fill="grey" stroke="grey" stroke-width="2" points="62,-550.1 58.5,-540.1 55,-550.1 62,-550.1"/>
</g>
<!-- 8 -->
<g id="node9" class="node">
<title>8</title>
<path fill="none" stroke="#d85656" stroke-width="2" d="M80.5,-684C80.5,-684 36.5,-684 36.5,-684 30.5,-684 24.5,-678 24.5,-672 24.5,-672 24.5,-660 24.5,-660 24.5,-654 30.5,-648 36.5,-648 36.5,-648 80.5,-648 80.5,-648 86.5,-648 92.5,-654 92.5,-660 92.5,-660 92.5,-672 92.5,-672 92.5,-678 86.5,-684 80.5,-684"/>
<text text-anchor="middle" x="58.5" y="-663.5" font-family="sans" font-size="10.00">bwa_mem</text>
</g>
<!-- 8&#45;&gt;7 -->
<g id="edge9" class="edge">
<title>8&#45;&gt;7</title>
<path fill="none" stroke="grey" stroke-width="2" d="M58.5,-647.7C58.5,-639.98 58.5,-630.71 58.5,-622.11"/>
<polygon fill="grey" stroke="grey" stroke-width="2" points="62,-622.1 58.5,-612.1 55,-622.1 62,-622.1"/>
</g>
<!-- 9 -->
<g id="node10" class="node">
<title>9</title>
<path fill="none" stroke="#9fd856" stroke-width="2" d="M105,-756C105,-756 12,-756 12,-756 6,-756 0,-750 0,-744 0,-744 0,-732 0,-732 0,-726 6,-720 12,-720 12,-720 105,-720 105,-720 111,-720 117,-726 117,-732 117,-732 117,-744 117,-744 117,-750 111,-756 105,-756"/>
<text text-anchor="middle" x="58.5" y="-741" font-family="sans" font-size="10.00">fastp</text>
<text text-anchor="middle" x="58.5" y="-730" font-family="sans" font-size="10.00">sample: sampleID01</text>
</g>
<!-- 9&#45;&gt;8 -->
<g id="edge10" class="edge">
<title>9&#45;&gt;8</title>
<path fill="none" stroke="grey" stroke-width="2" d="M58.5,-719.7C58.5,-711.98 58.5,-702.71 58.5,-694.11"/>
<polygon fill="grey" stroke="grey" stroke-width="2" points="62,-694.1 58.5,-684.1 55,-694.1 62,-694.1"/>
</g>
<!-- 10&#45;&gt;5 -->
<g id="edge7" class="edge">
<title>10&#45;&gt;5</title>
<path fill="none" stroke="grey" stroke-width="2" d="M93.88,-431.7C88.36,-423.47 81.65,-413.48 75.57,-404.42"/>
<polygon fill="grey" stroke="grey" stroke-width="2" points="78.46,-402.46 69.98,-396.1 72.65,-406.36 78.46,-402.46"/>
</g>
</g>
</svg>
