<?xml version="1.0" encoding="UTF-8" standalone="no"?>
<!DOCTYPE svg PUBLIC "-//W3C//DTD SVG 1.1//EN"
 "http://www.w3.org/Graphics/SVG/1.1/DTD/svg11.dtd">
<!-- Generated by graphviz version 2.43.0 (0)
 -->
<!-- Title: snakemake_dag Pages: 1 -->
<svg width="187pt" height="764pt"
 viewBox="0.00 0.00 187.00 764.00" xmlns="http://www.w3.org/2000/svg" xmlns:xlink="http://www.w3.org/1999/xlink">
<g id="graph0" class="graph" transform="scale(1 1) rotate(0) translate(4 760)">
<title>snakemake_dag</title>
<polygon fill="white" stroke="transparent" points="-4,4 -4,-760 183,-760 183,4 -4,4"/>
<!-- 0 -->
<g id="node1" class="node">
<title>0</title>
<path fill="none" stroke="#56d89a" stroke-width="2" d="M75,-36C75,-36 45,-36 45,-36 39,-36 33,-30 33,-24 33,-24 33,-12 33,-12 33,-6 39,0 45,0 45,0 75,0 75,0 81,0 87,-6 87,-12 87,-12 87,-24 87,-24 87,-30 81,-36 75,-36"/>
<text text-anchor="middle" x="60" y="-15.5" font-family="sans" font-size="10.00">all</text>
</g>
<!-- 1 -->
<g id="node2" class="node">
<title>1</title>
<path fill="none" stroke="#56b1d8" stroke-width="2" d="M91.5,-108C91.5,-108 28.5,-108 28.5,-108 22.5,-108 16.5,-102 16.5,-96 16.5,-96 16.5,-84 16.5,-84 16.5,-78 22.5,-72 28.5,-72 28.5,-72 91.5,-72 91.5,-72 97.5,-72 103.5,-78 103.5,-84 103.5,-84 103.5,-96 103.5,-96 103.5,-102 97.5,-108 91.5,-108"/>
<text text-anchor="middle" x="60" y="-87.5" font-family="sans" font-size="10.00">bcftools_index</text>
</g>
<!-- 1&#45;&gt;0 -->
<g id="edge1" class="edge">
<title>1&#45;&gt;0</title>
<path fill="none" stroke="grey" stroke-width="2" d="M60,-71.7C60,-63.98 60,-54.71 60,-46.11"/>
<polygon fill="grey" stroke="grey" stroke-width="2" points="63.5,-46.1 60,-36.1 56.5,-46.1 63.5,-46.1"/>
</g>
<!-- 2 -->
<g id="node3" class="node">
<title>2</title>
<path fill="none" stroke="#56d8c9" stroke-width="2" d="M89.5,-180C89.5,-180 30.5,-180 30.5,-180 24.5,-180 18.5,-174 18.5,-168 18.5,-168 18.5,-156 18.5,-156 18.5,-150 24.5,-144 30.5,-144 30.5,-144 89.5,-144 89.5,-144 95.5,-144 101.5,-150 101.5,-156 101.5,-156 101.5,-168 101.5,-168 101.5,-174 95.5,-180 89.5,-180"/>
<text text-anchor="middle" x="60" y="-159.5" font-family="sans" font-size="10.00">bcftools_filter</text>
</g>
<!-- 2&#45;&gt;1 -->
<g id="edge2" class="edge">
<title>2&#45;&gt;1</title>
<path fill="none" stroke="grey" stroke-width="2" d="M60,-143.7C60,-135.98 60,-126.71 60,-118.11"/>
<polygon fill="grey" stroke="grey" stroke-width="2" points="63.5,-118.1 60,-108.1 56.5,-118.1 63.5,-118.1"/>
</g>
<!-- 3 -->
<g id="node4" class="node">
<title>3</title>
<path fill="none" stroke="#9fd856" stroke-width="2" d="M91,-252C91,-252 29,-252 29,-252 23,-252 17,-246 17,-240 17,-240 17,-228 17,-228 17,-222 23,-216 29,-216 29,-216 91,-216 91,-216 97,-216 103,-222 103,-228 103,-228 103,-240 103,-240 103,-246 97,-252 91,-252"/>
<text text-anchor="middle" x="60" y="-231.5" font-family="sans" font-size="10.00">bcftools_norm</text>
</g>
<!-- 3&#45;&gt;2 -->
<g id="edge3" class="edge">
<title>3&#45;&gt;2</title>
<path fill="none" stroke="grey" stroke-width="2" d="M60,-215.7C60,-207.98 60,-198.71 60,-190.11"/>
<polygon fill="grey" stroke="grey" stroke-width="2" points="63.5,-190.1 60,-180.1 56.5,-190.1 63.5,-190.1"/>
</g>
<!-- 4 -->
<g id="node5" class="node">
<title>4</title>
<path fill="none" stroke="#d88556" stroke-width="2" d="M86.5,-324C86.5,-324 33.5,-324 33.5,-324 27.5,-324 21.5,-318 21.5,-312 21.5,-312 21.5,-300 21.5,-300 21.5,-294 27.5,-288 33.5,-288 33.5,-288 86.5,-288 86.5,-288 92.5,-288 98.5,-294 98.5,-300 98.5,-300 98.5,-312 98.5,-312 98.5,-318 92.5,-324 86.5,-324"/>
<text text-anchor="middle" x="60" y="-303.5" font-family="sans" font-size="10.00">bcftools_call</text>
</g>
<!-- 4&#45;&gt;3 -->
<g id="edge4" class="edge">
<title>4&#45;&gt;3</title>
<path fill="none" stroke="grey" stroke-width="2" d="M60,-287.7C60,-279.98 60,-270.71 60,-262.11"/>
<polygon fill="grey" stroke="grey" stroke-width="2" points="63.5,-262.1 60,-252.1 56.5,-262.1 63.5,-262.1"/>
</g>
<!-- 5 -->
<g id="node6" class="node">
<title>5</title>
<path fill="none" stroke="#5682d8" stroke-width="2" d="M98,-396C98,-396 22,-396 22,-396 16,-396 10,-390 10,-384 10,-384 10,-372 10,-372 10,-366 16,-360 22,-360 22,-360 98,-360 98,-360 104,-360 110,-366 110,-372 110,-372 110,-384 110,-384 110,-390 104,-396 98,-396"/>
<text text-anchor="middle" x="60" y="-375.5" font-family="sans" font-size="10.00">bcftools_mpileup</text>
</g>
<!-- 5&#45;&gt;4 -->
<g id="edge5" class="edge">
<title>5&#45;&gt;4</title>
<path fill="none" stroke="grey" stroke-width="2" d="M60,-359.7C60,-351.98 60,-342.71 60,-334.11"/>
<polygon fill="grey" stroke="grey" stroke-width="2" points="63.5,-334.1 60,-324.1 56.5,-334.1 63.5,-334.1"/>
</g>
<!-- 6 -->
<g id="node7" class="node">
<title>6</title>
<path fill="none" stroke="#ced856" stroke-width="2" d="M108,-540C108,-540 12,-540 12,-540 6,-540 0,-534 0,-528 0,-528 0,-516 0,-516 0,-510 6,-504 12,-504 12,-504 108,-504 108,-504 114,-504 120,-510 120,-516 120,-516 120,-528 120,-528 120,-534 114,-540 108,-540"/>
<text text-anchor="middle" x="60" y="-519.5" font-family="sans" font-size="10.00">sambamba_markdup</text>
</g>
<!-- 6&#45;&gt;5 -->
<g id="edge6" class="edge">
<title>6&#45;&gt;5</title>
<path fill="none" stroke="grey" stroke-width="2" d="M47.27,-503.85C40.71,-493.92 33.39,-480.88 30,-468 25.92,-452.53 25.92,-447.47 30,-432 32.49,-422.54 37.1,-412.99 41.97,-404.66"/>
<polygon fill="grey" stroke="grey" stroke-width="2" points="44.95,-406.49 47.27,-396.15 39.01,-402.79 44.95,-406.49"/>
</g>
<!-- 10 -->
<g id="node11" class="node">
<title>10</title>
<path fill="none" stroke="#d85656" stroke-width="2" d="M167,-468C167,-468 51,-468 51,-468 45,-468 39,-462 39,-456 39,-456 39,-444 39,-444 39,-438 45,-432 51,-432 51,-432 167,-432 167,-432 173,-432 179,-438 179,-444 179,-444 179,-456 179,-456 179,-462 173,-468 167,-468"/>
<text text-anchor="middle" x="109" y="-447.5" font-family="sans" font-size="10.00">sambamba_index_rmdup</text>
</g>
<!-- 6&#45;&gt;10 -->
<g id="edge11" class="edge">
<title>6&#45;&gt;10</title>
<path fill="none" stroke="grey" stroke-width="2" d="M72.11,-503.7C77.87,-495.47 84.86,-485.48 91.21,-476.42"/>
<polygon fill="grey" stroke="grey" stroke-width="2" points="94.16,-478.3 97.03,-468.1 88.42,-474.29 94.16,-478.3"/>
</g>
<!-- 7 -->
<g id="node8" class="node">
<title>7</title>
<path fill="none" stroke="#70d856" stroke-width="2" d="M95.5,-612C95.5,-612 24.5,-612 24.5,-612 18.5,-612 12.5,-606 12.5,-600 12.5,-600 12.5,-588 12.5,-588 12.5,-582 18.5,-576 24.5,-576 24.5,-576 95.5,-576 95.5,-576 101.5,-576 107.5,-582 107.5,-588 107.5,-588 107.5,-600 107.5,-600 107.5,-606 101.5,-612 95.5,-612"/>
<text text-anchor="middle" x="60" y="-591.5" font-family="sans" font-size="10.00">sambamba_sort</text>
</g>
<!-- 7&#45;&gt;6 -->
<g id="edge8" class="edge">
<title>7&#45;&gt;6</title>
<path fill="none" stroke="grey" stroke-width="2" d="M60,-575.7C60,-567.98 60,-558.71 60,-550.11"/>
<polygon fill="grey" stroke="grey" stroke-width="2" points="63.5,-550.1 60,-540.1 56.5,-550.1 63.5,-550.1"/>
</g>
<!-- 8 -->
<g id="node9" class="node">
<title>8</title>
<path fill="none" stroke="#56d86b" stroke-width="2" d="M82,-684C82,-684 38,-684 38,-684 32,-684 26,-678 26,-672 26,-672 26,-660 26,-660 26,-654 32,-648 38,-648 38,-648 82,-648 82,-648 88,-648 94,-654 94,-660 94,-660 94,-672 94,-672 94,-678 88,-684 82,-684"/>
<text text-anchor="middle" x="60" y="-663.5" font-family="sans" font-size="10.00">bwa_mem</text>
</g>
<!-- 8&#45;&gt;7 -->
<g id="edge9" class="edge">
<title>8&#45;&gt;7</title>
<path fill="none" stroke="grey" stroke-width="2" d="M60,-647.7C60,-639.98 60,-630.71 60,-622.11"/>
<polygon fill="grey" stroke="grey" stroke-width="2" points="63.5,-622.1 60,-612.1 56.5,-622.1 63.5,-622.1"/>
</g>
<!-- 9 -->
<g id="node10" class="node">
<title>9</title>
<path fill="none" stroke="#d8b456" stroke-width="2" d="M106.5,-756C106.5,-756 13.5,-756 13.5,-756 7.5,-756 1.5,-750 1.5,-744 1.5,-744 1.5,-732 1.5,-732 1.5,-726 7.5,-720 13.5,-720 13.5,-720 106.5,-720 106.5,-720 112.5,-720 118.5,-726 118.5,-732 118.5,-732 118.5,-744 118.5,-744 118.5,-750 112.5,-756 106.5,-756"/>
<text text-anchor="middle" x="60" y="-741" font-family="sans" font-size="10.00">fastp</text>
<text text-anchor="middle" x="60" y="-730" font-family="sans" font-size="10.00">sample: sampleID01</text>
</g>
<!-- 9&#45;&gt;8 -->
<g id="edge10" class="edge">
<title>9&#45;&gt;8</title>
<path fill="none" stroke="grey" stroke-width="2" d="M60,-719.7C60,-711.98 60,-702.71 60,-694.11"/>
<polygon fill="grey" stroke="grey" stroke-width="2" points="63.5,-694.1 60,-684.1 56.5,-694.1 63.5,-694.1"/>
</g>
<!-- 10&#45;&gt;5 -->
<g id="edge7" class="edge">
<title>10&#45;&gt;5</title>
<path fill="none" stroke="grey" stroke-width="2" d="M96.89,-431.7C91.13,-423.47 84.14,-413.48 77.79,-404.42"/>
<polygon fill="grey" stroke="grey" stroke-width="2" points="80.58,-402.29 71.97,-396.1 74.84,-406.3 80.58,-402.29"/>
</g>
</g>
</svg>
